<svg xmlns="http://www.w3.org/2000/svg" id="a" viewBox="0 0 653.24 141.73"><defs><style>.b{fill:#e22927;}.c{fill:#282828;}</style></defs><g><path class="c" d="M211.75,103.88V45.2h-21.02v-10.13h52.85v10.13h-21.12v58.68h-10.7Z"/><path class="c" d="M275.33,87.92l10.61,1.43c-3.92,10.8-12.23,15.48-22.74,15.48-14.72,0-25.04-10.8-25.04-26.09s10.42-26.09,24.37-26.09c14.05,.1,24.75,10.23,24.75,29.34h-38.23c.86,8.31,6.5,13.67,14.24,13.67,6.12,0,10.32-3.34,12.04-7.74Zm-26.18-13.95h26.85c-1.15-6.31-5.92-12.14-13.48-12.14s-12.33,5.83-13.38,12.14Z"/><path class="c" d="M295.52,53.61h10.13v5.92h.19c2.01-3.82,5.92-6.4,11.95-6.4,1.34,0,2.48,.19,3.73,.57v9.75c-1.34-.48-2.68-.57-3.73-.57-7.36,0-12.14,4.78-12.14,12.14v28.86h-10.13V53.61Z"/><path class="c" d="M327.4,53.61h10.13v5.92h.19c2.01-3.82,5.92-6.4,11.95-6.4,1.34,0,2.48,.19,3.73,.57v9.75c-1.34-.48-2.68-.57-3.73-.57-7.36,0-12.14,4.78-12.14,12.14v28.86h-10.13V53.61Z"/><path class="c" d="M400.46,96.42c0,2.2,.1,4.68,.48,7.45h-9.94c-.19-1.62-.38-4.87-.38-7.36h-.19c-3.92,6.02-10.03,8.31-16.15,8.31-10.99,0-17.39-5.93-17.39-15.29s7.26-14.53,16.34-15l17.11-.86v-2.39c0-6.4-4.59-10.32-11.18-10.32s-10.42,3.73-10.89,8.98h-10.32c.96-10.23,8.6-17.3,21.41-17.3,13.48,0,21.12,7.93,21.12,19.78v23.99Zm-10.13-14.91l-13.67,.76c-5.93,.29-9.27,2.39-9.27,7.17,0,4.21,3.34,6.78,9.08,6.78,6.69,0,13.86-3.34,13.86-11.75v-2.96Z"/><path class="c" d="M474.04,103.88l-22.84-31.82-5.83,5.93v25.9h-10.7V35.07h10.7v29.43l27.24-29.43h14.62l-28.96,29.72,30.1,39.09h-14.34Z"/><path class="c" d="M532.88,96.42c0,2.2,.1,4.68,.48,7.45h-9.94c-.19-1.62-.38-4.87-.38-7.36h-.19c-3.92,6.02-10.03,8.31-16.15,8.31-10.99,0-17.39-5.93-17.39-15.29s7.26-14.53,16.34-15l17.11-.86v-2.39c0-6.4-4.59-10.32-11.18-10.32s-10.42,3.73-10.89,8.98h-10.32c.96-10.23,8.6-17.3,21.41-17.3,13.47,0,21.12,7.93,21.12,19.78v23.99Zm-10.13-14.91l-13.67,.76c-5.93,.29-9.27,2.39-9.27,7.17,0,4.21,3.34,6.78,9.08,6.78,6.69,0,13.86-3.34,13.86-11.75v-2.96Z"/><path class="c" d="M568.15,41.86c-1.05-.29-2.01-.38-3.15-.38-4.68,0-8.12,2.49-8.12,8.22v3.92h11.28v9.08h-11.28v41.19h-10.13V62.69h-8.89v-9.08h8.89v-3.54c0-13.57,8.7-17.87,17.2-17.87,1.53,0,2.87,.19,4.21,.48v9.17Z"/><path class="c" d="M601.92,41.86c-1.05-.29-2.01-.38-3.15-.38-4.68,0-8.12,2.49-8.12,8.22v3.92h11.28v9.08h-11.28v41.19h-10.13V62.69h-8.89v-9.08h8.89v-3.54c0-13.57,8.7-17.87,17.2-17.87,1.53,0,2.87,.19,4.21,.48v9.17Z"/><path class="c" d="M641.29,87.92l10.61,1.43c-3.92,10.8-12.23,15.48-22.74,15.48-14.72,0-25.04-10.8-25.04-26.09s10.42-26.09,24.37-26.09c14.05,.1,24.75,10.23,24.75,29.34h-38.23c.86,8.31,6.5,13.67,14.24,13.67,6.12,0,10.32-3.34,12.04-7.74Zm-26.18-13.95h26.85c-1.15-6.31-5.92-12.14-13.48-12.14s-12.33,5.83-13.38,12.14Z"/></g><path class="b" d="M30.75,64.27c0,17.29,13.99,30.22,30.35,30.22s30.35-13.33,30.35-30.09c0-8.18-3.04-16.1-8.84-21.64l-3.43-3.3c-3.04-3.04-12.93-11.88-13.2-15.18h-9.77c-.13,3.3-9.9,12.27-13.07,15.18-1.45,1.32-2.51,2.38-3.43,3.3-5.81,5.68-8.97,13.46-8.97,21.51Zm50.42,4.36c-2.11,9.37-10.43,16.1-20.06,16.1s-18.08-6.99-20.06-16.1h40.12Zm-34.58-19c.79-.79,1.85-1.72,3.17-2.9,4.36-4.09,8.45-7.92,11.35-11.61,3.04,3.7,7.13,7.39,11.48,11.61l3.04,2.9c2.64,2.64,4.49,5.81,5.41,9.24H41.31c.92-3.43,2.64-6.6,5.28-9.24ZM61.11,0C27.45,0,0,31.8,0,70.87s27.45,70.87,61.11,70.87,61.11-31.81,61.11-70.87S94.89,0,61.11,0Zm0,9.77c28.38,0,51.34,27.45,51.34,61.11,0,12.14-2.9,23.36-8.05,32.86H17.95c-5.15-9.5-8.18-20.72-8.18-32.86,0-33.65,23.1-61.11,51.34-61.11Zm0,122.21c-14.39,0-27.32-7.13-36.69-18.48H97.8c-9.24,11.35-22.3,18.48-36.69,18.48Z"/></svg> 